
<svg width="293" height="78" viewBox="0 0 293 78" fill="none" xmlns="http://www.w3.org/2000/svg">
<path d="M119.067 23.4785H111.645L104.61 33.3384L97.5764 23.4785H90.1538L100.899 38.5256L90.1538 53.5298H97.5764L104.61 43.7128L111.645 53.5298H119.067L108.322 38.5256L119.067 23.4785Z" fill="white"/>
<path d="M137.298 23.4785L121.892 53.5298H128.668L138.032 35.2675L146.663 53.5298H153.352L139.068 23.4785H137.298Z" fill="white"/>
<path d="M155.932 53.4869V23.4785H161.974V53.4869H155.932Z" fill="white"/>
<path d="M190.608 53.5298L173.605 35.9963V53.5298H167.563V23.4785H169.462L186.163 40.2832V23.4785H192.204V53.5298H190.608Z" fill="white"/>
<path d="M197.822 23.4785V53.4869H200.282V53.5298H206.366C208.395 53.5298 210.38 53.144 212.235 52.3295C214.048 51.6007 215.644 50.4861 217.025 49.1143C218.449 47.7425 219.528 46.1563 220.262 44.3558C221.082 42.5124 221.47 40.5404 221.47 38.4827C221.47 36.4679 221.082 34.4959 220.262 32.6525C219.528 30.852 218.449 29.2659 217.025 27.8512C215.644 26.4794 214.048 25.4076 212.235 24.636C210.38 23.8643 208.395 23.4785 206.366 23.4785H197.822ZM203.863 47.5281V29.4802H206.366C211.372 29.4802 215.429 33.5099 215.429 38.4827C215.429 43.4555 211.372 47.5281 206.366 47.5281H203.863Z" fill="white"/>
<path d="M258.366 23.4785H226.226V29.4802H258.366V23.4785ZM226.226 41.0549H250.01V35.0532H226.226V41.0549ZM226.226 53.5298H258.237V47.5281H226.226V53.5298Z" fill="white"/>
<path d="M293 23.4785H285.577L278.543 33.3384L271.509 23.4785H264.087L274.832 38.5256L264.087 53.5298H271.509L278.543 43.7128L285.577 53.5298H293L282.255 38.5256L293 23.4785Z" fill="white"/>
<path fill-rule="evenodd" clip-rule="evenodd" d="M57.1876 4.66722C51.7023 1.69059 45.4176 0 38.738 0C17.3436 0 0 17.3436 0 38.738C0 50.5369 5.27504 61.1038 13.5954 68.209L33.9452 38.5518L20.6848 19.8051H29.8446L38.5251 32.0893L57.1876 4.66722ZM19.7724 72.5237L38.5251 45.0144L47.2056 57.2451H56.3654L43.105 38.5518L63.4309 8.88883C72.0104 15.9943 77.476 26.7279 77.476 38.738C77.476 60.1324 60.1324 77.476 38.738 77.476C31.848 77.476 25.3782 75.6772 19.7724 72.5237Z" fill="white"/>
</svg>