<svg width="219" height="163" viewBox="0 0 219 163" fill="none" xmlns="http://www.w3.org/2000/svg">
<path d="M31.2158 130.008H23.2022L15.6079 140.724L8.01362 130.008H0L11.6011 146.361L0 162.668H8.01362L15.6079 151.999L23.2022 162.668H31.2158L19.6147 146.361L31.2158 130.008Z" fill="white"/>
<path d="M50.899 130.008L34.2661 162.668H41.5808L51.691 142.82L61.0092 162.668H68.2308L52.8092 130.008H50.899Z" fill="white"/>
<path d="M71.0164 162.621V130.008H77.5391V162.621H71.0164Z" fill="white"/>
<path d="M108.454 162.668L90.0967 143.612V162.668H83.574V130.008H85.624L103.655 148.271V130.008H110.177V162.668H108.454Z" fill="white"/>
<path d="M116.242 130.008V162.621H118.898V162.668H125.467C127.657 162.668 129.8 162.249 131.804 161.363C133.76 160.571 135.484 159.36 136.975 157.869C138.513 156.378 139.677 154.654 140.469 152.698C141.355 150.694 141.774 148.551 141.774 146.315C141.774 144.125 141.355 141.982 140.469 139.978C139.677 138.021 138.513 136.298 136.975 134.76C135.484 133.269 133.76 132.104 131.804 131.266C129.8 130.427 127.657 130.008 125.467 130.008H116.242ZM122.765 156.145V136.531H125.467C130.872 136.531 135.251 140.91 135.251 146.315C135.251 151.719 130.872 156.145 125.467 156.145H122.765Z" fill="white"/>
<path d="M181.608 130.008H146.908V136.531H181.608V130.008ZM146.908 149.11H172.587V142.587H146.908V149.11ZM146.908 162.668H181.468V156.145H146.908V162.668Z" fill="white"/>
<path d="M219 130.008H210.986L203.392 140.724L195.798 130.008H187.784L199.385 146.361L187.784 162.668H195.798L203.392 151.999L210.986 162.668H219L207.399 146.361L219 130.008Z" fill="white"/>
<path fill-rule="evenodd" clip-rule="evenodd" d="M134.914 6.4497C127.333 2.33625 118.648 0 109.418 0C79.8527 0 55.8854 23.9672 55.8854 53.5323C55.8854 69.8374 63.1751 84.4399 74.6731 94.2586L102.795 53.2751L84.47 27.3689H97.128L109.124 44.3445L134.914 6.4497ZM83.2091 100.221L109.124 62.2057L121.119 79.1075H133.777L115.453 53.2751L143.541 12.2836C155.397 22.1027 162.95 36.9355 162.95 53.5323C162.95 83.0974 138.983 107.065 109.418 107.065C99.8965 107.065 90.9557 104.579 83.2091 100.221Z" fill="url(#paint0_linear_33_82)"/>
<defs>
<linearGradient id="paint0_linear_33_82" x1="36.1896" y1="3.41635e-06" x2="175.114" y2="19.2426" gradientUnits="userSpaceOnUse">
<stop stop-color="#FFE600"/>
<stop offset="0.5" stop-color="#94FF40"/>
<stop offset="1" stop-color="#5CFF10"/>
</linearGradient>
</defs>
</svg>
